<svg width="62" height="33" viewBox="0 0 62 33" fill="none" xmlns="http://www.w3.org/2000/svg">
<path d="M2.71309 24.24C1.87309 24.24 1.20109 23.736 1.20109 22.824C1.20109 21.864 1.87309 21.36 2.71309 21.36C3.55309 21.36 4.22509 21.864 4.22509 22.824C4.22509 23.736 3.55309 24.24 2.71309 24.24ZM11.5682 24.24C8.61616 24.24 6.00016 21.864 6.00016 18.216C6.00016 14.712 8.42416 12.24 11.6162 12.24C13.0562 12.24 14.2802 12.864 15.0962 13.776V8.568C15.0962 7.56 14.0882 7.584 14.0882 7.152V7.104C14.0882 6.912 14.2322 6.792 14.4722 6.696L16.4162 6.048C16.9202 5.856 17.1362 6 17.1362 6.408V22.32C17.1362 23.184 18.0242 23.256 18.0242 23.664V23.736C18.0242 23.904 17.9042 24 17.6882 24H15.6482C15.4082 24 15.2642 23.832 15.2642 23.616L15.1922 22.416C14.4002 23.616 12.9842 24.24 11.5682 24.24ZM8.06416 17.496C8.01616 20.784 9.64816 23.424 12.0722 23.448C13.4162 23.448 15.0962 22.296 15.0962 19.992H15.1202L15.0962 18.768V16.296C15.0722 14.784 13.5602 13.008 11.6162 13.008C9.55216 13.008 8.08816 14.808 8.06416 17.496ZM20.4071 24C20.1191 24 19.9271 23.88 19.9271 23.688V23.592C19.9271 23.136 20.7911 23.136 20.7911 22.296V15.144C20.7911 14.208 19.9271 14.016 19.9271 13.656V13.608C19.9271 13.44 20.0711 13.368 20.3111 13.248L22.1351 12.336C22.6391 12.096 22.9031 12.336 22.9031 12.672V22.296C22.9031 23.136 23.8391 23.136 23.8391 23.592V23.688C23.8391 23.88 23.6471 24 23.3351 24H20.4071ZM20.1671 8.712C20.1671 7.824 20.8151 7.2 21.7751 7.2C22.7351 7.2 23.3351 7.824 23.3351 8.712C23.3351 9.6 22.7351 10.2 21.7751 10.2C20.8151 10.2 20.1671 9.6 20.1671 8.712ZM30.707 24C30.347 24 30.203 23.832 30.059 23.52L25.739 14.16C25.379 13.368 24.707 13.272 24.707 12.816V12.744C24.707 12.576 24.875 12.48 25.091 12.48H28.427C28.595 12.48 28.763 12.6 28.763 12.768V12.84C28.763 13.2 27.803 13.416 28.115 14.184L31.499 22.464L34.763 14.4C35.195 13.296 33.923 13.272 33.923 12.84V12.768C33.923 12.576 34.067 12.48 34.307 12.48H36.707C36.947 12.48 37.067 12.576 37.067 12.744V12.816C37.067 13.272 36.179 13.368 35.867 14.16L32.051 23.52C31.955 23.832 31.763 24 31.427 24H30.707ZM39.8827 29.088C38.0827 29.088 36.9307 27.888 36.9307 26.952C36.9307 26.4 37.2667 25.992 37.8427 25.992C39.0907 25.992 38.7547 28.248 40.2427 28.248C41.2747 28.248 42.3067 26.568 43.1707 24.456L38.5627 14.304C38.0827 13.296 37.4107 13.32 37.4107 12.84V12.768C37.4107 12.576 37.5787 12.48 37.7707 12.48H40.8907C41.0827 12.48 41.2267 12.6 41.2267 12.768V12.84C41.2267 13.32 40.3627 13.296 40.8187 14.328L44.2747 22.464L47.7067 14.52C48.2347 13.296 46.7947 13.32 46.7947 12.84V12.768C46.7947 12.6 46.9387 12.48 47.1547 12.48H49.5547C49.7467 12.48 49.8907 12.576 49.8907 12.768V12.84C49.8907 13.32 49.2667 13.296 48.8107 14.328L44.2747 24.336C43.3387 26.448 42.2107 29.088 39.8827 29.088ZM60.2051 24.144C59.1011 24.144 58.5491 23.88 58.4771 22.536C57.9251 23.544 56.7731 24.24 55.0211 24.24C52.3811 24.24 50.5571 22.92 50.5331 20.616C50.5091 18.312 52.4531 17.064 54.9491 17.064C56.2211 17.064 57.2531 17.424 57.9011 18.024L57.8531 17.376C57.5891 14.544 56.7971 13.008 54.9011 13.008C52.4051 13.008 52.7651 15.744 51.5651 15.744C50.9891 15.744 50.6531 15.408 50.6531 14.856C50.6531 13.584 52.2851 12.24 54.9011 12.24C57.8531 12.24 59.6291 14.136 59.9411 17.304L60.3971 22.08C60.5411 23.568 61.7651 23.04 61.7651 23.64C61.7651 24 61.0931 24.144 60.2051 24.144ZM52.6691 20.328C52.6691 22.08 53.7971 23.472 55.5491 23.472C57.1571 23.472 58.2131 22.296 58.1651 20.832L58.0931 20.136C58.0451 18.816 56.9891 17.832 55.4051 17.832C53.7971 17.832 52.6691 18.84 52.6691 20.328Z" fill="white"/>
</svg>
